# xmcd
#
# Track frame offsets: 
#        150
#        11296
#        22936
#        35136
#        49481
#        63786
#        78377
#        92684
#        107656
#        121474
#        136924
#        147641
#        161199
#        173714
#        185656
#        194969
#        211475
#        228679
#        243574
#        254851
#        270126
#        282351
#        295222
#        307584
#        319982
#        333439
#
# Disc length: 4596 seconds
#
# Revision: 0
# Processed by: cddbd v1.5.2PL0 Copyright (c) Steve Scherf et al.
# Submitted via: ExactAudioCopy v0.95b3
#
DISCID=8d11f21a
DTITLE=Chuck Berry  - Johnny B. Goode His Complete '50's Chess Recordi
DTITLE=ngs Disc 2
DYEAR=1900
DGENRE=
TTITLE0=Rock And Roll Music (alternate)
TTITLE1=Rock And Roll Music
TTITLE2=13 Question Method (early version)
TTITLE3=How High The Moon (instrumental)
TTITLE4=Sweet Little Sixteen (demo)
TTITLE5=Sweet Little Sixteen (take 3)
TTITLE6=Sweet Little Sixteen (take 11)
TTITLE7=Sweet Little Sixteen (original master)
TTITLE8=Sweet Little Sixteen (sped up originally released version)
TTITLE9=Rock At The Philharmonic (instrumental)
TTITLE10=Guitar Boogie (instrumental)
TTITLE11=Night Beat (take 3) (instrumental)
TTITLE12=Night Beat (instrumental)
TTITLE13=Time Was (slow version, take 4)
TTITLE14=Time Was (slow version)
TTITLE15=Reeling And Rocking (take 1)
TTITLE16=Reeling And Rocking (takes 7\\8)
TTITLE17=Reeling And Rocking
TTITLE18=Chuckwalk (instrumental)
TTITLE19=Johnny B. Goode (alt. take 2\\3)
TTITLE20=Johnny B. Goode
TTITLE21=Around And Around (overdub take 2)
TTITLE22=Around And Around (overdub take 3)
TTITLE23=Around And Around
TTITLE24=Ingo (overdub take 3) (instrumental)
TTITLE25=Ingo (instrumental)
EXTD=
EXTT0=
EXTT1=
EXTT2=
EXTT3=
EXTT4=
EXTT5=
EXTT6=
EXTT7=
EXTT8=
EXTT9=
EXTT10=
EXTT11=
EXTT12=
EXTT13=
EXTT14=
EXTT15=
EXTT16=
EXTT17=
EXTT18=
EXTT19=
EXTT20=
EXTT21=
EXTT22=
EXTT23=
EXTT24=
EXTT25=
PLAYORDER=
